<svg width="12" height="46" viewBox="0 0 12 46" fill="none" xmlns="http://www.w3.org/2000/svg">
<path d="M8.84 29.96H2.312L0.584 13V0.199997H10.504V13L8.84 29.96ZM11.016 40.392C11.016 41.8853 10.4827 43.1653 9.416 44.232C8.34933 45.2987 7.06933 45.832 5.576 45.832C4.08267 45.832 2.80267 45.2987 1.736 44.232C0.669333 43.1653 0.136 41.8853 0.136 40.392C0.136 38.8987 0.669333 37.6187 1.736 36.552C2.80267 35.4853 4.08267 34.952 5.576 34.952C7.06933 34.952 8.34933 35.4853 9.416 36.552C10.4827 37.6187 11.016 38.8987 11.016 40.392Z" fill="url(#paint0_linear_219_2031)"/>
<defs>
<linearGradient id="paint0_linear_219_2031" x1="6" y1="-12" x2="6" y2="67" gradientUnits="userSpaceOnUse">
<stop stop-color="#FF6485"/>
<stop offset="1" stop-color="#B80F36"/>
</linearGradient>
</defs>
</svg>
