<svg width="58" height="58" viewBox="0 0 58 58" fill="none" xmlns="http://www.w3.org/2000/svg">
<path d="M35.7392 27.3365C36.2477 28.9643 38.2252 29.3011 39.5246 28.8521C39.6376 30.2554 41.1631 31.4341 42.9711 31.0974C41.8411 31.5464 39.5812 31.4341 39.1292 29.4134C38.1687 29.6379 35.9087 29.245 35.7392 27.3365ZM49.1861 30.087C50.7116 31.8832 58.565 46.7583 52.1805 46.0286C48.5646 45.5795 45.0616 36.3177 37.2647 36.5983C42.3496 35.0827 46.8131 40.0224 46.8131 40.0224V39.854C48.7906 41.6502 50.6551 43.6149 52.35 44.5691C57.2655 47.488 50.7681 32.5568 49.1861 30.087ZM6.69842 25.3718C2.63045 34.4092 11.3879 41.0328 19.6368 35.3634C13.6479 43.1097 -0.0815259 36.0931 6.69842 25.3718ZM13.9304 46.5338C12.4049 51.5295 8.9584 53.9432 6.13342 53.0451C1.38746 51.5857 1.83946 41.5941 2.34795 37.6087C2.51745 36.2054 2.85645 34.6898 3.30845 33.062C1.21796 60.5107 12.2354 50.4069 13.9304 46.5338ZM8.6194 29.0766C8.5064 29.9747 9.4104 30.4799 10.4839 30.4238L13.1959 30.3115L13.3089 31.9393C13.4219 32.8936 14.0999 33.7356 15.2298 33.6794C14.6649 34.0162 12.8569 33.8478 12.8569 31.5464V30.8167L10.4839 30.8728C9.2974 30.929 8.28041 30.3676 8.6194 29.0766ZM22.0098 24.0247C23.2528 24.3615 27.4902 25.2596 32.1232 22.7336C32.1232 22.7336 30.2022 25.9332 23.0833 25.5402C23.6483 27.5049 22.7443 28.5153 22.7443 28.5153C23.0268 26.3822 22.5748 25.6525 21.6143 23.9124C21.6143 23.8563 21.7838 23.9124 22.0098 24.0247ZM39.1856 33.4549C41.2761 35.3634 46.3046 33.5672 47.0956 30.5922C44.1576 34.5776 39.1856 33.4549 39.1856 33.4549ZM55.5705 36.5422C54.3275 33.7356 52.124 29.7502 49.4121 27.9539C51.1071 30.536 52.6325 33.3988 53.819 36.2054C55.0055 39.2927 55.7965 42.2116 55.74 44.513C55.74 46.1408 55.2315 47.2074 53.0845 47.3196C48.7341 47.488 46.8696 41.1451 41.6151 38.7314C38.7337 37.3842 34.7222 36.9912 30.7672 37.3842H30.5412C32.4057 36.5422 34.4962 35.8686 36.4172 35.5318C36.5302 35.4195 36.5867 35.3634 36.7562 35.2511C34.0442 35.0266 26.3038 36.5983 20.9928 40.0785C14.3824 44.513 15.3428 52.9329 9.0149 54.673C5.62493 55.5711 4.15594 54.5607 3.08245 52.5961C1.21796 49.2281 0.709467 44.1201 1.10496 39.0681C1.10496 39.0681 -2.56751 52.4838 3.47794 56.8621C7.09391 59.4442 12.9134 57.2551 15.4558 54.0555C24.4393 58.8829 34.4397 58.49 42.3496 54.4484C45.2876 52.9329 47.9996 50.9121 50.2031 48.5545C53.7625 51.305 56.87 48.2177 56.87 48.2177C58.565 45.8602 57.6045 40.9767 55.5705 36.5422ZM15.1733 23.8001C16.0208 23.8001 16.8118 24.3615 16.8118 25.035C16.9248 25.6525 16.9248 26.3261 17.0378 26.9997C17.8288 26.9997 18.6198 26.9436 19.4108 26.9436C20.2018 26.9436 20.9363 27.5049 21.0493 28.1785C21.1623 28.9082 20.5408 29.5256 19.6933 29.5256C18.9023 29.5818 18.0548 29.6379 17.3203 29.6379C17.3768 30.3676 17.4333 31.0412 17.4898 31.7709C17.6028 32.5568 16.8683 33.2865 15.9643 33.3426C15.0038 33.4549 14.1564 32.7813 14.0999 31.9955C14.0434 31.2096 13.9869 30.4799 13.9304 29.8063C13.0264 29.8063 12.1789 29.8624 11.2749 29.9186C10.2579 29.9747 9.4104 29.3572 9.4104 28.5714C9.3539 27.7855 10.2014 27.1119 11.1619 27.1119C12.0659 27.1119 12.9134 27.0558 13.8174 27.0558C13.7609 26.3822 13.7044 25.7086 13.7044 25.035C13.5914 24.3615 14.2694 23.744 15.1733 23.8001ZM46.8696 6.00617C46.8696 6.00617 47.9431 3.64861 45.1746 1.23491C45.1746 1.23491 47.2086 3.817 46.1351 5.50098C41.3326 2.02077 35.5132 0 29.1287 0C13.1394 0 0.257471 12.8543 0.257471 28.6275C0.257471 31.2657 0.652968 33.8478 1.33096 36.3177C2.46095 31.2657 4.09944 23.5195 9.2409 21.218C11.7834 20.0393 14.9474 20.4322 17.4333 21.611C17.4333 21.611 16.3033 20.0393 13.0264 19.7586C13.6479 18.1869 14.4954 18.0746 16.7553 18.4676C19.8063 19.0289 19.5803 18.8605 20.9928 21.1058C22.4053 21.7794 23.7048 22.1723 25.1738 22.2846L25.3998 18.9728L26.0213 18.9166L25.9648 18.7482C25.1738 14.2015 22.8008 14.2576 20.5973 14.3699C19.6368 14.3699 18.7328 14.426 17.8853 14.2576C16.7553 13.9208 15.3993 12.9105 15.3428 11.6755C15.2863 10.609 16.0773 9.65477 16.9813 9.09345C18.9023 7.91467 24.4958 8.98118 26.6428 9.37411C30.8237 10.1038 35.6262 10.9458 39.6376 10.5529C42.8581 10.2161 45.5701 8.98118 46.8696 6.00617ZM56.87 36.5422C57.6045 34.0162 58 31.378 58 28.5714C58 22.06 55.7965 16.0539 52.0675 11.2265C50.9376 9.76704 49.6381 8.41986 48.2256 7.18495C46.6436 10.4406 43.4796 11.7878 39.6941 12.2369C35.5132 12.6859 30.5977 11.7878 26.3038 11.0581C23.4223 10.5529 20.8798 10.1038 19.2413 10.16C18.6763 10.2161 18.2243 10.3284 17.8288 10.5529C17.5463 10.6652 17.3768 10.9458 17.2073 11.1703C16.6988 11.9001 17.6028 12.4053 18.2808 12.5737C18.9588 12.7421 19.7498 12.6859 20.5408 12.6859C23.4223 12.5737 26.6428 12.7421 27.7162 18.5798L26.7558 18.8605C27.2642 18.9727 27.6597 18.8044 28.1117 18.8044L28.2812 19.4779C28.2812 19.4779 27.6032 19.8709 26.5863 19.8709C26.5863 19.8709 27.4902 20.0393 28.3942 19.8147L28.5637 20.3761C28.3377 20.4883 27.7162 20.7129 26.8688 20.6567C26.8688 20.6567 27.7727 20.8251 28.6202 20.6567L28.7897 21.2742C28.5072 21.3864 27.9987 21.5548 27.3207 21.4987C27.3207 21.4987 28.0552 21.611 28.9027 21.5548L29.0157 21.9478C30.2022 21.6671 31.2757 21.3303 32.7447 20.6567C32.9707 19.1973 32.8577 19.1973 35.6262 18.4676C37.4907 18.0185 38.7337 18.3553 39.2986 19.8147C39.2986 19.8147 36.4172 20.1515 34.9482 20.9935C34.9482 20.9935 37.9992 20.2077 39.8636 20.2638C41.5586 20.4322 43.1406 21.0497 44.7791 22.453C45.4571 23.0704 46.0221 23.6879 46.6436 24.3053L48.2821 26.4945C48.2821 26.4945 47.2651 22.902 42.8581 20.0393C42.8581 20.0393 47.9996 21.1619 49.9206 27.1119C53.141 28.9082 55.2315 33.511 56.87 36.5422ZM14.3824 24.3053C14.0999 24.4176 13.9304 24.6983 13.9869 25.035C14.0434 25.6525 14.0999 26.3261 14.0999 26.9997H14.1564H14.4954V26.6068C14.4389 25.9332 14.3824 25.2596 14.3824 24.586C14.3259 24.5299 14.3259 24.4176 14.3824 24.3053ZM10.2014 27.7294C9.91889 27.8978 9.74939 28.1785 9.74939 28.5714C9.80589 29.3011 10.6534 29.694 11.3314 29.6379C12.2354 29.5818 13.0829 29.5256 13.9869 29.5256H14.3259V29.8624C14.4389 30.5922 14.4389 31.3219 14.4954 32.0516C14.5519 32.7813 15.3428 33.1742 15.9643 33.1181C16.4163 33.062 16.8683 32.8375 17.0943 32.5007C16.8683 32.6129 16.5858 32.7252 16.3033 32.7813C15.6818 32.8375 14.8909 32.3884 14.8344 31.7148C14.7214 30.9851 14.7214 30.2554 14.6649 29.5256V29.1888H14.3259C13.4219 29.245 12.5179 29.3011 11.6139 29.3011C10.9924 29.3011 10.0884 28.9082 10.0884 28.1785C10.0884 28.0101 10.1449 27.8978 10.2014 27.7294ZM17.3768 29.3572C18.1678 29.3011 18.9588 29.3011 19.7498 29.245C20.1453 29.245 20.5973 29.0205 20.7103 28.6275C20.5408 28.7398 20.3148 28.7959 20.0888 28.7959C19.2978 28.8521 18.4503 28.9082 17.7158 28.9082H17.3203L17.3768 29.3572ZM41.5586 27.8417C42.4626 27.7855 43.4231 28.403 43.7056 29.1888C43.9881 30.0308 43.5361 30.7606 42.5756 30.929C41.6716 31.0412 40.5981 30.4799 40.2591 29.5818C40.0331 28.6837 40.5416 27.8978 41.5586 27.8417ZM40.7676 28.5714C40.5981 28.7959 40.4851 29.1888 40.6546 29.4695C40.9371 30.1992 41.7846 30.7044 42.5756 30.5922C43.0276 30.4799 43.3666 30.2554 43.4796 29.9186C43.3101 30.087 43.0841 30.2554 42.7451 30.3115C41.9541 30.4238 41.1066 29.9186 40.8241 29.1888C40.7111 28.9643 40.6546 28.7398 40.7676 28.5714ZM36.5867 26.2138C36.4172 26.4384 36.3607 26.7752 36.4737 27.1119C36.8127 27.9539 37.8862 28.5153 38.7902 28.4591C39.3552 28.403 39.7506 28.1223 39.8636 27.7294C39.6941 27.9539 39.3551 28.1223 38.9597 28.1223C38.0557 28.2346 36.9822 27.6733 36.6432 26.7752C36.5302 26.5506 36.5302 26.3822 36.5867 26.2138ZM38.8467 23.3511C38.6772 23.5756 38.6207 23.9124 38.7337 24.2492C39.0162 25.0351 39.9766 25.6525 40.8241 25.5964C41.3326 25.5964 41.7281 25.3157 41.7846 24.9789C41.6151 25.1473 41.3326 25.3157 40.9936 25.3157C40.1461 25.3718 39.1292 24.6983 38.8467 23.9685C38.8467 23.744 38.7902 23.5195 38.8467 23.3511ZM42.6321 25.877C42.4626 26.1016 42.4061 26.4384 42.5191 26.719C42.7451 27.3926 43.5361 27.9539 44.2706 27.8978C44.6661 27.8417 44.9486 27.6171 45.0616 27.2803C44.9486 27.4487 44.6661 27.561 44.4401 27.6171C43.7056 27.6733 42.9146 27.1119 42.6886 26.4384C42.5756 26.2138 42.5756 26.0454 42.6321 25.877ZM40.1461 26.9436C40.4851 27.8417 39.9201 28.6275 38.8467 28.7398C37.7167 28.8521 36.5302 28.1223 36.1912 27.1681C35.8522 26.2138 36.5302 25.3718 37.6037 25.3718C38.7902 25.3718 39.8071 26.1016 40.1461 26.9436ZM39.7506 22.7336C40.7676 22.7336 41.7281 23.4633 42.0671 24.3053C42.3496 25.1473 41.8411 25.877 40.8806 25.9332C39.9201 25.9893 38.7337 25.2596 38.4512 24.3615C38.1122 23.4633 38.7902 22.6775 39.7506 22.7336ZM45.3441 26.6629C45.5701 27.5049 45.1746 28.1785 44.3271 28.2346C43.4231 28.2907 42.4626 27.6733 42.1801 26.8313C41.8976 25.9893 42.4061 25.2596 43.3101 25.2596C44.2141 25.2034 45.0616 25.877 45.3441 26.6629ZM23.4788 32.0516C22.5748 32.2761 22.6878 33.1181 23.0833 33.1742C23.6483 32.9497 25.0043 32.5007 26.0778 32.4445C26.5863 32.3884 27.0383 32.5007 27.2642 32.7813C27.5467 33.062 27.6032 33.511 27.3772 34.2969C27.7727 33.4549 27.9422 32.6129 27.8292 32.22C27.7162 31.8271 27.4337 31.6587 26.9253 31.6025C26.5298 31.4903 25.9083 31.5464 25.2868 31.6587C24.7218 31.7148 24.1003 31.8832 23.4788 32.0516ZM30.5412 30.7606C29.6372 30.9851 29.7502 31.8271 30.1457 31.8832C30.7672 31.6587 32.1232 31.1535 33.1967 31.0974C33.7052 31.0974 34.1007 31.2096 34.3832 31.4903C34.6092 31.7709 34.7222 32.22 34.4962 33.0059C34.8917 32.1639 35.0612 31.3219 34.9482 30.929C34.8352 30.536 34.5527 30.3676 34.0442 30.3115C33.5922 30.2554 33.0272 30.3115 32.4057 30.4238C31.7842 30.4238 31.1062 30.5922 30.5412 30.7606Z" fill="url(#paint0_linear_113_468)"/>
<defs>
<linearGradient id="paint0_linear_113_468" x1="29" y1="0" x2="29" y2="58" gradientUnits="userSpaceOnUse">
<stop stop-color="#B93CCA"/>
<stop offset="1" stop-color="#FF2351"/>
</linearGradient>
</defs>
</svg>
